# xmcd
#
# Track frame offsets: 
#        150
#        19597
#        37077
#        52521
#        72261
#        95497
#        114982
#        134974
#        156488
#        175619
#        198776
#        217517
#        241578
#        256086
#
# Disc length: 3619 seconds
#
# Revision: 0
# Processed by: cddbd v1.5.2PL0 Copyright (c) Steve Scherf et al.
# Submitted via: ExactAudioCopy v0.99pb5
#
DISCID=ae0e210e
DTITLE=Falkenstein - Urdarbrunnen
DYEAR=2008
DGENRE=Neofolk
TTITLE0=Funkenfeuer
TTITLE1=Sonnenkraut
TTITLE2=Unter der Weide
TTITLE3=Erlkönig
TTITLE4=Die Odaliske
TTITLE5=Grau sind die Masken
TTITLE6=Der Zauberhain
TTITLE7=Siegfried's Schwert
TTITLE8=Der Sonnwendmann
TTITLE9=Halfdan, Ragnar's Sohn
TTITLE10=Blumentod
TTITLE11=Walpurgisnacht
TTITLE12=Weltenbaum
TTITLE13=Heiliger Holunder
EXTD=
EXTT0=
EXTT1=
EXTT2=
EXTT3=
EXTT4=
EXTT5=
EXTT6=
EXTT7=
EXTT8=
EXTT9=
EXTT10=
EXTT11=
EXTT12=
EXTT13=
PLAYORDER=
